<svg xmlns="http://www.w3.org/2000/svg" viewBox="0 0 128 128" role="img" aria-labelledby="title desc">
  <title id="title">My Room icon</title>
  <desc id="desc">A neon bedroom doorway with a moonlit monitor and piano key.</desc>
  <defs>
    <linearGradient id="bg" x1="12" y1="14" x2="118" y2="116" gradientUnits="userSpaceOnUse">
      <stop offset="0" stop-color="#101827"/>
      <stop offset=".52" stop-color="#241640"/>
      <stop offset="1" stop-color="#071923"/>
    </linearGradient>
    <linearGradient id="glow" x1="28" y1="28" x2="102" y2="98" gradientUnits="userSpaceOnUse">
      <stop offset="0" stop-color="#4cc9ff"/>
      <stop offset=".58" stop-color="#ff4fd8"/>
      <stop offset="1" stop-color="#fff06b"/>
    </linearGradient>
    <filter id="soft" x="-20%" y="-20%" width="140%" height="140%">
      <feGaussianBlur stdDeviation="3"/>
    </filter>
  </defs>
  <rect width="128" height="128" rx="28" fill="url(#bg)"/>
  <path d="M18 91 64 25l46 66v15H18z" fill="#050811" opacity=".72"/>
  <path d="M24 91 64 34l40 57" fill="none" stroke="url(#glow)" stroke-width="6" stroke-linecap="round" stroke-linejoin="round"/>
  <path d="M42 102V67c0-5 4-9 9-9h26c5 0 9 4 9 9v35" fill="#101827" stroke="#ffffff" stroke-opacity=".22" stroke-width="2"/>
  <rect x="52" y="69" width="24" height="16" rx="3" fill="#071923" stroke="#4cc9ff" stroke-width="3"/>
  <path d="M48 94h32" stroke="#fff06b" stroke-width="5" stroke-linecap="round"/>
  <path d="M48 94h7m7 0h7m7 0h4" stroke="#050811" stroke-width="2" stroke-linecap="round"/>
  <circle cx="94" cy="34" r="8" fill="#fff6bd"/>
  <circle cx="33" cy="41" r="2" fill="#4cc9ff"/>
  <circle cx="101" cy="76" r="2" fill="#ff4fd8"/>
  <path d="M24 91 64 34l40 57" fill="none" stroke="url(#glow)" stroke-width="10" stroke-linecap="round" stroke-linejoin="round" opacity=".24" filter="url(#soft)"/>
</svg>
